<svg width="24" height="20" viewBox="0 0 24 20" fill="none" xmlns="http://www.w3.org/2000/svg">
<path d="M21.9643 0.176659C18.7981 1.49882 5.22249 7.16933 1.47144 8.7149C-1.04425 9.70487 0.428328 10.6329 0.428328 10.6329C0.428328 10.6329 2.57568 11.3753 4.41635 11.9322C6.25701 12.489 7.23873 11.8703 7.23873 11.8703L15.8898 5.99238C18.9575 3.8889 18.2213 5.6212 17.4852 6.36355C15.8898 7.9723 13.2516 10.5089 11.0428 12.5507C10.0611 13.4168 10.552 14.1594 10.9814 14.5306C12.5768 15.8918 16.9329 18.6759 17.1785 18.8616C18.4747 19.7869 21.0243 21.119 21.412 18.3048L22.946 8.59109C23.4369 5.31194 23.9277 2.28014 23.9891 1.41399C24.173 -0.689495 21.9643 0.176659 21.9643 0.176659Z" fill="white"/>
</svg>
