<svg width="21" height="19" viewBox="0 0 21 19" fill="none" xmlns="http://www.w3.org/2000/svg">
<path d="M19.488 13.9441L16.6893 11.2926C15.6898 10.3456 13.9905 10.7244 13.5907 11.9554C13.2909 12.8077 12.2913 13.2812 11.3917 13.0918C9.39263 12.6183 6.69386 10.1562 6.19408 8.16758C5.89422 7.31527 6.49395 6.36831 7.39354 6.08425C8.69295 5.70547 9.09276 4.09563 8.09322 3.14866L5.29449 0.497157C4.49486 -0.165719 3.29541 -0.165719 2.59572 0.497157L0.69659 2.29639C-1.20254 4.19032 0.896499 9.20924 5.59436 13.66C10.2922 18.1107 15.5898 20.1941 17.5889 18.3001L19.488 16.5009C20.1877 15.7433 20.1877 14.6069 19.488 13.9441Z" fill="#C2A75A"/>
</svg>
