<svg width="33" height="33" viewBox="0 0 33 33" fill="none" xmlns="http://www.w3.org/2000/svg">
<path d="M33 13.3526V19.6474C33 20.1213 32.616 20.5058 32.1416 20.5058H20.5059V32.1415C20.5059 32.616 20.1214 32.9999 19.6475 32.9999H13.3526C12.879 32.9999 12.4942 32.6159 12.4942 32.1415V20.5058H0.858399C0.384148 20.5058 0 20.1213 0 19.6474V13.3526C0 12.8786 0.384148 12.4942 0.858399 12.4942H12.4942V0.858397C12.4942 0.383957 12.8789 0 13.3526 0H19.6475C20.1214 0 20.5059 0.383957 20.5059 0.858397V12.4942H32.1416C32.6161 12.4942 33 12.8786 33 13.3526Z" fill="#C2A75A"/>
</svg>
